<svg width="512" height="512" viewBox="0 0 512 512" xmlns="http://www.w3.org/2000/svg">
  <defs>
    <linearGradient id="bgGradient" x1="0%" y1="0%" x2="100%" y2="100%">
      <stop offset="0%" style="stop-color:#FF69B4;stop-opacity:1" />
      <stop offset="50%" style="stop-color:#FF1493;stop-opacity:1" />
      <stop offset="100%" style="stop-color:#DA70D6;stop-opacity:1" />
    </linearGradient>
    <linearGradient id="pinGradient" x1="0%" y1="0%" x2="100%" y2="100%">
      <stop offset="0%" style="stop-color:#FFF;stop-opacity:1" />
      <stop offset="100%" style="stop-color:#F8F8FF;stop-opacity:1" />
    </linearGradient>
  </defs>
  
  <!-- Background circle with shadow -->
  <circle cx="256" cy="256" r="240" fill="url(#bgGradient)" filter="drop-shadow(0 8px 32px rgba(0,0,0,0.3))"/>
  
  <!-- Main location pin -->
  <g transform="translate(256,256)">
    <!-- Pin body -->
    <circle cx="0" cy="-40" r="60" fill="url(#pinGradient)" stroke="#FF69B4" stroke-width="4"/>
    <circle cx="0" cy="-40" r="35" fill="#FF69B4"/>
    
    <!-- Pin point -->
    <path d="M 0,-100 L -35,-20 L 0,-10 L 35,-20 Z" fill="url(#pinGradient)" stroke="#FF69B4" stroke-width="2"/>
    
    <!-- Inner sparkle -->
    <circle cx="0" cy="-40" r="15" fill="#FFF" opacity="0.9"/>
  </g>
  
  <!-- Decorative sparkles -->
  <g fill="#FFF" opacity="0.85">
    <path d="M 100,120 L 115,105 L 130,120 L 115,135 Z"/>
    <path d="M 382,100 L 397,85 L 412,100 L 397,115 Z"/>
    <path d="M 80,350 L 95,335 L 110,350 L 95,365 Z"/>
    <path d="M 410,380 L 425,365 L 440,380 L 425,395 Z"/>
    <circle cx="150" cy="400" r="8"/>
    <circle cx="380" cy="140" r="6"/>
  </g>
  
  <!-- Small location dots -->
  <g fill="#FFF" opacity="0.7">
    <circle cx="180" cy="200" r="4"/>
    <circle cx="320" cy="180" r="4"/>
    <circle cx="200" cy="320" r="4"/>
    <circle cx="340" cy="340" r="4"/>
  </g>
</svg>